<svg xmlns="http://www.w3.org/2000/svg" xmlns:osb="http://www.openswatchbook.org/uri/2009/osb" xmlns:svg="http://www.w3.org/2000/svg" id="svg7384" width="16.036" height="16" version="1.1"><metadata id="metadata90"/><title id="title9167">elementary Symbolic Icon Theme</title><defs id="defs7386"><linearGradient id="linearGradient4526" osb:paint="solid"><stop style="stop-color:#fff;stop-opacity:1" id="stop4528" offset="0"/></linearGradient></defs><path id="rect3375" d="M 10.130787,1 A 4.8692121,4.8692121 0 0 0 5.2615759,5.869212 4.8692121,4.8692121 0 0 0 5.7846357,8.0636861 L 1.3576471,12.488298 c -0.47686282,0.476861 -0.47686282,1.246857 0,1.72372 l 0.4303356,0.430334 c 0.4768629,0.476864 1.2468572,0.476864 1.72372,0 L 7.941069,10.210609 A 4.8692121,4.8692121 0 0 0 10.130787,10.738424 4.8692121,4.8692121 0 0 0 15,5.869212 4.8692121,4.8692121 0 0 0 14.474562,3.6794931 l -3.05039,3.0503901 c -0.476862,0.4768629 -1.246856,0.4768629 -1.7237202,0 L 9.2701167,6.2995476 c -0.4768629,-0.4768628 -0.4768629,-1.2468571 0,-1.7237201 L 12.322884,1.5230599 A 4.8692121,4.8692121 0 0 0 10.130787,1 Z" style="color:#fbc02d;clip-rule:nonzero;display:inline;overflow:visible;visibility:visible;opacity:1;isolation:auto;mix-blend-mode:normal;color-interpolation:sRGB;color-interpolation-filters:linearRGB;solid-color:#000;solid-opacity:1;fill:gray;fill-opacity:1;fill-rule:nonzero;stroke:none;stroke-width:1;stroke-linecap:butt;stroke-linejoin:miter;stroke-miterlimit:4;stroke-dasharray:none;stroke-dashoffset:0;stroke-opacity:1;marker:none;color-rendering:auto;image-rendering:auto;shape-rendering:auto;text-rendering:auto;enable-background:accumulate"/><path id="path4416-7" d="M 7.0890263,2.4375 C 6.2491115,2.437407 5.5006124,2.9674635 5.2218393,3.7597656 L 2.7023081,10.927734 c -0.4518437,1.287031 0.5031446,2.634604 1.8671874,2.634766 l 1.6308594,0 c 0.7911214,-0.0014 1.5054244,-0.473735 1.8164064,-1.201172 0.31154,0.728741 1.027771,1.201361 1.820312,1.201172 l 1.6308597,0 c 1.364382,-10e-4 2.318537,-1.34984 1.865234,-2.636719 L 10.80387,3.7578125 C 10.524676,2.9669569 9.7773263,2.4379431 8.9386363,2.4375 Z" style="color:#fbc02d;font-style:normal;font-variant:normal;font-weight:700;font-stretch:normal;font-size:10px;line-height:125%;font-family:'Open Sans';-inkscape-font-specification:'Open Sans Bold';letter-spacing:0;word-spacing:0;clip-rule:nonzero;display:inline;overflow:visible;visibility:visible;opacity:.07000002;isolation:auto;mix-blend-mode:normal;color-interpolation:sRGB;color-interpolation-filters:linearRGB;solid-color:#000;solid-opacity:1;fill:#000;fill-opacity:1;fill-rule:nonzero;stroke:none;stroke-width:1;stroke-linecap:butt;stroke-linejoin:miter;stroke-miterlimit:4;stroke-dasharray:none;stroke-dashoffset:0;stroke-opacity:1;marker:none;color-rendering:auto;image-rendering:auto;shape-rendering:auto;text-rendering:auto;enable-background:accumulate"/><path id="path4416" d="m 7.088048,3.388672 c -0.4360754,4.186e-4 -0.8244044,0.276007 -0.9687495,0.6875 l -2.5195313,7.167969 c -0.2337134,0.667686 0.2613417,1.366353 0.96875,1.367188 l 1.6308594,0 C 6.6514404,12.611003 7.050203,12.3153 7.181798,11.882813 l 0.296876,-0.970703 1.0781243,0 0.296876,0.970703 c 0.131595,0.432486 0.530357,0.72819 0.982421,0.728516 l 1.6308597,0 c 0.708572,-3.63e-4 1.204194,-0.700829 0.96875,-1.369141 L 9.9064083,4.0742189 C 9.7614033,3.6634963 9.3732263,3.3887985 8.9376583,3.388672 Z" style="color:#fbc02d;font-style:normal;font-variant:normal;font-weight:700;font-stretch:normal;font-size:10px;line-height:125%;font-family:'Open Sans';-inkscape-font-specification:'Open Sans Bold';letter-spacing:0;word-spacing:0;clip-rule:nonzero;display:inline;overflow:visible;visibility:visible;opacity:.2;isolation:auto;mix-blend-mode:normal;color-interpolation:sRGB;color-interpolation-filters:linearRGB;solid-color:#000;solid-opacity:1;fill:#000;fill-opacity:1;fill-rule:nonzero;stroke:none;stroke-width:1;stroke-linecap:butt;stroke-linejoin:miter;stroke-miterlimit:4;stroke-dasharray:none;stroke-dashoffset:0;stroke-opacity:1;marker:none;color-rendering:auto;image-rendering:auto;shape-rendering:auto;text-rendering:auto;enable-background:accumulate"/><path id="text3368" d="m 7.0883954,4.4160158 -2.5195308,7.1679692 1.6308594,0 0.5175782,-1.6992194 2.6015621,0 0.517578,1.6992194 1.6308597,0 -2.5292967,-7.1679692 z m 0.9316409,1.109375 c 0.02604,0.1171876 0.06836,0.2747396 0.126953,0.4765626 0.06185,0.2018229 0.332032,1.0735677 0.810547,2.6132812 l -1.8593749,0 C 7.6059744,6.9713544 7.9126144,5.9420575 8.0200363,5.5253908 Z" style="font-style:normal;font-variant:normal;font-weight:700;font-stretch:normal;font-size:10px;line-height:125%;font-family:'Open Sans';-inkscape-font-specification:'Open Sans Bold';letter-spacing:0;word-spacing:0;fill:#fff;fill-opacity:1;stroke:none;stroke-width:1px;stroke-linecap:butt;stroke-linejoin:miter;stroke-opacity:1"/></svg>