<svg xmlns="http://www.w3.org/2000/svg" xmlns:osb="http://www.openswatchbook.org/uri/2009/osb" xmlns:svg="http://www.w3.org/2000/svg" id="svg7384" width="16.036" height="16" version="1.1"><metadata id="metadata90"/><title id="title9167">elementary Symbolic Icon Theme</title><defs id="defs7386"><linearGradient id="linearGradient4526" osb:paint="solid"><stop style="stop-color:#fff;stop-opacity:1" id="stop4528" offset="0"/></linearGradient></defs><rect id="rect4164" width="6.876" height="6.876" x="11.411" y="-4.145" rx=".877" ry=".877" transform="matrix(0.70710678,0.70710678,0.70710678,-0.70710678,0,0)" style="color:#fbc02d;clip-rule:nonzero;display:inline;overflow:visible;visibility:visible;opacity:1;isolation:auto;mix-blend-mode:normal;color-interpolation:sRGB;color-interpolation-filters:linearRGB;solid-color:#000;solid-opacity:1;fill:#3585dd;fill-opacity:1;fill-rule:nonzero;stroke:none;stroke-width:1;stroke-linecap:butt;stroke-linejoin:miter;stroke-miterlimit:4;stroke-dasharray:none;stroke-dashoffset:0;stroke-opacity:1;marker:none;color-rendering:auto;image-rendering:auto;shape-rendering:auto;text-rendering:auto;enable-background:accumulate"/><path id="rect4164-8-7-9-8" d="M 10 6.5 C 9.7759452 6.5 9.5525418 6.5861301 9.3808594 6.7578125 L 6.9140625 9.2226562 L 8.6035156 10.912109 C 9.3869899 11.695584 10.648166 11.695584 11.431641 10.912109 L 13.101562 9.2421875 L 10.619141 6.7578125 C 10.447458 6.5861301 10.224055 6.5 10 6.5 z" style="color:#fbc02d;clip-rule:nonzero;display:inline;overflow:visible;visibility:visible;opacity:.1;isolation:auto;mix-blend-mode:normal;color-interpolation:sRGB;color-interpolation-filters:linearRGB;solid-color:#000;solid-opacity:1;fill:#000;fill-opacity:1;fill-rule:nonzero;stroke:none;stroke-width:1;stroke-linecap:butt;stroke-linejoin:miter;stroke-miterlimit:4;stroke-dasharray:none;stroke-dashoffset:0;stroke-opacity:1;marker:none;color-rendering:auto;image-rendering:auto;shape-rendering:auto;text-rendering:auto;enable-background:accumulate"/><path id="rect4164-8-7-0" d="M 10 6.5 C 9.7759452 6.5 9.5525418 6.5861301 9.3808594 6.7578125 L 7.5195312 8.6210938 L 8.9570312 10.058594 C 9.544637 10.646199 10.490519 10.646199 11.078125 10.058594 L 12.5 8.6386719 L 10.619141 6.7578125 C 10.447458 6.5861301 10.224055 6.5 10 6.5 z" style="color:#fbc02d;clip-rule:nonzero;display:inline;overflow:visible;visibility:visible;opacity:.1;isolation:auto;mix-blend-mode:normal;color-interpolation:sRGB;color-interpolation-filters:linearRGB;solid-color:#000;solid-opacity:1;fill:#000;fill-opacity:1;fill-rule:nonzero;stroke:none;stroke-width:1;stroke-linecap:butt;stroke-linejoin:miter;stroke-miterlimit:4;stroke-dasharray:none;stroke-dashoffset:0;stroke-opacity:1;marker:none;color-rendering:auto;image-rendering:auto;shape-rendering:auto;text-rendering:auto;enable-background:accumulate"/><rect id="rect4164-0" width="6.876" height="6.876" x="7.181" y=".11" rx=".877" ry=".877" transform="matrix(0.70710678,0.70710678,0.70710678,-0.70710678,0,0)" style="color:#fbc02d;clip-rule:nonzero;display:inline;overflow:visible;visibility:visible;opacity:1;isolation:auto;mix-blend-mode:normal;color-interpolation:sRGB;color-interpolation-filters:linearRGB;solid-color:#000;solid-opacity:1;fill:#844cc8;fill-opacity:1;fill-rule:nonzero;stroke:none;stroke-width:1;stroke-linecap:butt;stroke-linejoin:miter;stroke-miterlimit:4;stroke-dasharray:none;stroke-dashoffset:0;stroke-opacity:1;marker:none;color-rendering:auto;image-rendering:auto;shape-rendering:auto;text-rendering:auto;enable-background:accumulate"/><path id="rect4164-8-7-9" d="M 7.7421875 2.4140625 L 5.7753906 4.3808594 C 5.4320258 4.7242242 5.4320258 5.2757758 5.7753906 5.6191406 L 8.1484375 7.9921875 L 5.7578125 10.380859 C 5.4144477 10.724224 5.4144477 11.275776 5.7578125 11.619141 L 6.7324219 12.59375 L 10.912109 8.4140625 C 11.695584 7.6305882 11.695584 6.3694118 10.912109 5.5859375 L 7.7421875 2.4140625 z" style="color:#fbc02d;clip-rule:nonzero;display:inline;overflow:visible;visibility:visible;opacity:.1;isolation:auto;mix-blend-mode:normal;color-interpolation:sRGB;color-interpolation-filters:linearRGB;solid-color:#000;solid-opacity:1;fill:#000;fill-opacity:1;fill-rule:nonzero;stroke:none;stroke-width:1;stroke-linecap:butt;stroke-linejoin:miter;stroke-miterlimit:4;stroke-dasharray:none;stroke-dashoffset:0;stroke-opacity:1;marker:none;color-rendering:auto;image-rendering:auto;shape-rendering:auto;text-rendering:auto;enable-background:accumulate"/><path id="rect4164-8-7" d="M 7.1367188 3.0195312 L 5.7753906 4.3808594 C 5.4320258 4.7242242 5.4320258 5.2757758 5.7753906 5.6191406 L 8.1484375 7.9921875 L 5.7578125 10.380859 C 5.4144477 10.724224 5.4144477 11.275776 5.7578125 11.619141 L 6.1289062 11.990234 L 10.058594 8.0605469 C 10.646199 7.4729411 10.646199 6.5270589 10.058594 5.9394531 L 7.1367188 3.0195312 z" style="color:#fbc02d;clip-rule:nonzero;display:inline;overflow:visible;visibility:visible;opacity:.1;isolation:auto;mix-blend-mode:normal;color-interpolation:sRGB;color-interpolation-filters:linearRGB;solid-color:#000;solid-opacity:1;fill:#000;fill-opacity:1;fill-rule:nonzero;stroke:none;stroke-width:1;stroke-linecap:butt;stroke-linejoin:miter;stroke-miterlimit:4;stroke-dasharray:none;stroke-dashoffset:0;stroke-opacity:1;marker:none;color-rendering:auto;image-rendering:auto;shape-rendering:auto;text-rendering:auto;enable-background:accumulate"/><rect id="rect4164-8" width="6.876" height="6.876" x="-4.852" y="5.047" rx=".877" ry=".877" transform="matrix(0.70710678,-0.70710678,0.70710678,0.70710678,0,0)" style="color:#fbc02d;clip-rule:nonzero;display:inline;overflow:visible;visibility:visible;opacity:1;isolation:auto;mix-blend-mode:normal;color-interpolation:sRGB;color-interpolation-filters:linearRGB;solid-color:#000;solid-opacity:1;fill:#fbc02d;fill-opacity:1;fill-rule:nonzero;stroke:none;stroke-width:1;stroke-linecap:butt;stroke-linejoin:miter;stroke-miterlimit:4;stroke-dasharray:none;stroke-dashoffset:0;stroke-opacity:1;marker:none;color-rendering:auto;image-rendering:auto;shape-rendering:auto;text-rendering:auto;enable-background:accumulate"/></svg>