<svg xmlns="http://www.w3.org/2000/svg" xmlns:svg="http://www.w3.org/2000/svg" id="svg7384" width="16.036" height="16" version="1.1"><metadata id="metadata90"/><title id="title9167">elementary Symbolic Icon Theme</title><path style="color:#fbc02d;clip-rule:nonzero;display:inline;overflow:visible;visibility:visible;opacity:1;isolation:auto;mix-blend-mode:normal;color-interpolation:sRGB;color-interpolation-filters:linearRGB;solid-color:#000;solid-opacity:1;fill:#fbc02d;fill-opacity:1;fill-rule:nonzero;stroke:none;stroke-width:1;stroke-linecap:butt;stroke-linejoin:miter;stroke-miterlimit:4;stroke-dasharray:none;stroke-dashoffset:0;stroke-opacity:1;marker:none;color-rendering:auto;image-rendering:auto;shape-rendering:auto;text-rendering:auto;enable-background:accumulate" id="rect4162-1-2-3-8-7" d="M 3.5555556,0 C 2.6937778,0 2,0.7008571 2,1.5714286 L 2,9.428572 C 2,10.299143 2.6937778,11 3.5555556,11 L 14.444444,11 C 15.306223,11 16,10.299143 16,9.428572 L 16,1.5714286 C 16,0.7008571 15.306223,0 14.444444,0 Z"/><path style="color:#bebebe;clip-rule:nonzero;display:inline;overflow:visible;visibility:visible;opacity:.5;isolation:auto;mix-blend-mode:normal;color-interpolation:sRGB;color-interpolation-filters:linearRGB;solid-color:#000;solid-opacity:1;fill:#403757;fill-opacity:1;fill-rule:nonzero;stroke:none;stroke-width:1;stroke-linecap:butt;stroke-linejoin:miter;stroke-miterlimit:4;stroke-dasharray:none;stroke-dashoffset:0;stroke-opacity:1;marker:none;color-rendering:auto;image-rendering:auto;shape-rendering:auto;text-rendering:auto;enable-background:accumulate" id="rect4194-8-1-7-2" d="m 4.9819164,3 0,1 7.9999996,0 0,-1 -7.9999996,0 z m 0,2 0,1 7.9999996,0 0,-1 -7.9999996,0 z m 0,2 0,1 7.9999996,0 0,-1 -7.9999996,0 z"/><path id="rect4489" d="M 2 4 L 2 9.4277344 C 2 10.298305 2.6929097 11 3.5546875 11 L 14.445312 11 C 14.642115 11 14.826982 10.959355 15 10.892578 L 15 6.4492188 C 15 5.092504 13.992586 4 12.740234 4 L 2 4 z" style="color:#bebebe;clip-rule:nonzero;display:inline;overflow:visible;visibility:visible;opacity:.1;isolation:auto;mix-blend-mode:normal;color-interpolation:sRGB;color-interpolation-filters:linearRGB;solid-color:#000;solid-opacity:1;fill:maroon;fill-opacity:1;fill-rule:nonzero;stroke:none;stroke-width:1;stroke-linecap:butt;stroke-linejoin:miter;stroke-miterlimit:4;stroke-dasharray:none;stroke-dashoffset:0;stroke-opacity:1;marker:none;color-rendering:auto;image-rendering:auto;shape-rendering:auto;text-rendering:auto;enable-background:accumulate"/><path id="rect4564" d="M 2 3 L 2 9.4277344 C 2 10.298305 2.6929097 11 3.5546875 11 L 14.445312 11 C 15.307091 11 16 10.298305 16 9.4277344 L 16 6 C 16 4.338 14.662 3 13 3 L 2 3 z" style="color:#bebebe;clip-rule:nonzero;display:inline;overflow:visible;visibility:visible;opacity:.05;isolation:auto;mix-blend-mode:normal;color-interpolation:sRGB;color-interpolation-filters:linearRGB;solid-color:#000;solid-opacity:1;fill:maroon;fill-opacity:1;fill-rule:nonzero;stroke:none;stroke-width:1;stroke-linecap:butt;stroke-linejoin:miter;stroke-miterlimit:4;stroke-dasharray:none;stroke-dashoffset:0;stroke-opacity:1;marker:none;color-rendering:auto;image-rendering:auto;shape-rendering:auto;text-rendering:auto;enable-background:accumulate"/><path style="color:#fbc02d;clip-rule:nonzero;display:inline;overflow:visible;visibility:visible;opacity:1;isolation:auto;mix-blend-mode:normal;color-interpolation:sRGB;color-interpolation-filters:linearRGB;solid-color:#000;solid-opacity:1;fill:#fbc02d;fill-opacity:1;fill-rule:nonzero;stroke:none;stroke-width:1;stroke-linecap:butt;stroke-linejoin:miter;stroke-miterlimit:4;stroke-dasharray:none;stroke-dashoffset:0;stroke-opacity:1;marker:none;color-rendering:auto;image-rendering:auto;shape-rendering:auto;text-rendering:auto;enable-background:accumulate" id="rect4162-1-2-3-8" d="M 1.5555556,5 C 0.6937778,5 0,5.7008571 0,6.5714286 L 0,14.428572 C 0,15.299143 0.6937778,16 1.5555556,16 L 12.444444,16 C 13.306223,16 14,15.299143 14,14.428572 L 14,6.5714286 C 14,5.7008571 13.306223,5 12.444444,5 Z"/><path style="color:#bebebe;clip-rule:nonzero;display:inline;overflow:visible;visibility:visible;opacity:.5;isolation:auto;mix-blend-mode:normal;color-interpolation:sRGB;color-interpolation-filters:linearRGB;solid-color:#000;solid-opacity:1;fill:#403757;fill-opacity:1;fill-rule:nonzero;stroke:none;stroke-width:1;stroke-linecap:butt;stroke-linejoin:miter;stroke-miterlimit:4;stroke-dasharray:none;stroke-dashoffset:0;stroke-opacity:1;marker:none;color-rendering:auto;image-rendering:auto;shape-rendering:auto;text-rendering:auto;enable-background:accumulate" id="rect4194-8-1-7" d="m 2.9819164,8 0,1 7.9999996,0 0,-1 -7.9999996,0 z m 0,2 0,1 7.9999996,0 0,-1 -7.9999996,0 z m 0,2 0,1 7.9999996,0 0,-1 -7.9999996,0 z"/></svg>