<svg xmlns="http://www.w3.org/2000/svg" xmlns:svg="http://www.w3.org/2000/svg" id="svg7384" width="16.036" height="16" version="1.1"><metadata id="metadata90"/><title id="title9167">elementary Symbolic Icon Theme</title><path id="rect4162-1-2-3-8-7" d="M 3.5555556,0 C 2.6937778,0 2,0.7008571 2,1.5714286 L 2,9.428572 C 2,10.299143 2.6937778,11 3.5555556,11 L 14.444444,11 C 15.306223,11 16,10.299143 16,9.428572 L 16,1.5714286 C 16,0.7008571 15.306223,0 14.444444,0 Z" style="color:#fbc02d;clip-rule:nonzero;display:inline;overflow:visible;visibility:visible;opacity:1;isolation:auto;mix-blend-mode:normal;color-interpolation:sRGB;color-interpolation-filters:linearRGB;solid-color:#000;solid-opacity:1;fill:#fbc02d;fill-opacity:1;fill-rule:nonzero;stroke:none;stroke-width:1;stroke-linecap:butt;stroke-linejoin:miter;stroke-miterlimit:4;stroke-dasharray:none;stroke-dashoffset:0;stroke-opacity:1;marker:none;color-rendering:auto;image-rendering:auto;shape-rendering:auto;text-rendering:auto;enable-background:accumulate"/><path id="rect4194-8-1-7-2" d="m 4.9819164,3 0,1 7.9999996,0 0,-1 -7.9999996,0 z m 0,2 0,1 7.9999996,0 0,-1 -7.9999996,0 z m 0,2 0,1 7.9999996,0 0,-1 -7.9999996,0 z" style="color:#bebebe;clip-rule:nonzero;display:inline;overflow:visible;visibility:visible;opacity:.5;isolation:auto;mix-blend-mode:normal;color-interpolation:sRGB;color-interpolation-filters:linearRGB;solid-color:#000;solid-opacity:1;fill:#403757;fill-opacity:1;fill-rule:nonzero;stroke:none;stroke-width:1;stroke-linecap:butt;stroke-linejoin:miter;stroke-miterlimit:4;stroke-dasharray:none;stroke-dashoffset:0;stroke-opacity:1;marker:none;color-rendering:auto;image-rendering:auto;shape-rendering:auto;text-rendering:auto;enable-background:accumulate"/><path style="color:#bebebe;clip-rule:nonzero;display:inline;overflow:visible;visibility:visible;opacity:.1;isolation:auto;mix-blend-mode:normal;color-interpolation:sRGB;color-interpolation-filters:linearRGB;solid-color:#000;solid-opacity:1;fill:maroon;fill-opacity:1;fill-rule:nonzero;stroke:none;stroke-width:1;stroke-linecap:butt;stroke-linejoin:miter;stroke-miterlimit:4;stroke-dasharray:none;stroke-dashoffset:0;stroke-opacity:1;marker:none;color-rendering:auto;image-rendering:auto;shape-rendering:auto;text-rendering:auto;enable-background:accumulate" id="rect4489" d="M 2 4 L 2 9.4277344 C 2 10.298305 2.6929097 11 3.5546875 11 L 14.445312 11 C 14.642115 11 14.826982 10.959355 15 10.892578 L 15 6.4492188 C 15 5.092504 13.992586 4 12.740234 4 L 2 4 z"/><path style="color:#bebebe;clip-rule:nonzero;display:inline;overflow:visible;visibility:visible;opacity:.05;isolation:auto;mix-blend-mode:normal;color-interpolation:sRGB;color-interpolation-filters:linearRGB;solid-color:#000;solid-opacity:1;fill:maroon;fill-opacity:1;fill-rule:nonzero;stroke:none;stroke-width:1;stroke-linecap:butt;stroke-linejoin:miter;stroke-miterlimit:4;stroke-dasharray:none;stroke-dashoffset:0;stroke-opacity:1;marker:none;color-rendering:auto;image-rendering:auto;shape-rendering:auto;text-rendering:auto;enable-background:accumulate" id="rect4564" d="M 2 3 L 2 9.4277344 C 2 10.298305 2.6929097 11 3.5546875 11 L 14.445312 11 C 15.307091 11 16 10.298305 16 9.4277344 L 16 6 C 16 4.338 14.662 3 13 3 L 2 3 z"/><path id="rect4162-1-2-3-8" d="M 1.5555556,5 C 0.6937778,5 0,5.7008571 0,6.5714286 L 0,14.428572 C 0,15.299143 0.6937778,16 1.5555556,16 L 12.444444,16 C 13.306223,16 14,15.299143 14,14.428572 L 14,6.5714286 C 14,5.7008571 13.306223,5 12.444444,5 Z" style="color:#fbc02d;clip-rule:nonzero;display:inline;overflow:visible;visibility:visible;opacity:1;isolation:auto;mix-blend-mode:normal;color-interpolation:sRGB;color-interpolation-filters:linearRGB;solid-color:#000;solid-opacity:1;fill:#fbc02d;fill-opacity:1;fill-rule:nonzero;stroke:none;stroke-width:1;stroke-linecap:butt;stroke-linejoin:miter;stroke-miterlimit:4;stroke-dasharray:none;stroke-dashoffset:0;stroke-opacity:1;marker:none;color-rendering:auto;image-rendering:auto;shape-rendering:auto;text-rendering:auto;enable-background:accumulate"/><path id="rect4194-8-1-7" d="m 2.9819164,8 0,1 7.9999996,0 0,-1 -7.9999996,0 z m 0,2 0,1 7.9999996,0 0,-1 -7.9999996,0 z m 0,2 0,1 7.9999996,0 0,-1 -7.9999996,0 z" style="color:#bebebe;clip-rule:nonzero;display:inline;overflow:visible;visibility:visible;opacity:.5;isolation:auto;mix-blend-mode:normal;color-interpolation:sRGB;color-interpolation-filters:linearRGB;solid-color:#000;solid-opacity:1;fill:#403757;fill-opacity:1;fill-rule:nonzero;stroke:none;stroke-width:1;stroke-linecap:butt;stroke-linejoin:miter;stroke-miterlimit:4;stroke-dasharray:none;stroke-dashoffset:0;stroke-opacity:1;marker:none;color-rendering:auto;image-rendering:auto;shape-rendering:auto;text-rendering:auto;enable-background:accumulate"/><path id="path3482-5-7-8" d="M 12.5 7 C 9.462444 7 7 9.4624441 7 12.5 C 7 13.829923 7.4721504 15.048966 8.2578125 16 L 12.445312 16 C 13.307092 16 14 15.298305 14 14.427734 L 14 11 L 14.445312 11 C 15.307092 11 16 10.298305 16 9.4277344 L 16 8.2578125 C 15.048966 7.4721503 13.829923 7 12.5 7 z" style="color:#bebebe;clip-rule:nonzero;display:inline;overflow:visible;visibility:visible;opacity:.05;isolation:auto;mix-blend-mode:normal;color-interpolation:sRGB;color-interpolation-filters:linearRGB;solid-color:#000;solid-opacity:1;fill:maroon;fill-opacity:1;fill-rule:nonzero;stroke:none;stroke-width:1;stroke-linecap:butt;stroke-linejoin:miter;stroke-miterlimit:4;stroke-dasharray:none;stroke-dashoffset:0;stroke-opacity:1;marker:none;color-rendering:auto;image-rendering:auto;shape-rendering:auto;text-rendering:auto;enable-background:accumulate;filter-blend-mode:normal;filter-gaussianBlur-deviation:0"/><path id="path3482-5-7" d="M 12.5 8 C 10.014727 8 8 10.014727 8 12.5 C 8 13.922146 8.6730346 15.175351 9.703125 16 L 12.445312 16 C 13.307092 16 14 15.298305 14 14.427734 L 14 11 L 14.445312 11 C 15.223845 11 15.860044 10.426337 15.976562 9.6738281 C 15.151429 8.6604873 13.908662 8 12.5 8 z" style="color:#bebebe;display:inline;overflow:visible;visibility:visible;fill:maroon;fill-opacity:1;fill-rule:nonzero;stroke:none;stroke-width:1;marker:none;enable-background:accumulate;clip-rule:nonzero;opacity:.1;isolation:auto;mix-blend-mode:normal;color-interpolation:sRGB;color-interpolation-filters:linearRGB;solid-color:#000;solid-opacity:1;stroke-linecap:butt;stroke-linejoin:miter;stroke-miterlimit:4;stroke-dasharray:none;stroke-dashoffset:0;stroke-opacity:1;filter-blend-mode:normal;filter-gaussianBlur-deviation:0;color-rendering:auto;image-rendering:auto;shape-rendering:auto;text-rendering:auto"/><path style="color:#bebebe;display:inline;overflow:visible;visibility:visible;fill:#ef2929;fill-opacity:1;fill-rule:nonzero;stroke:none;stroke-width:1.90939796;marker:none;enable-background:accumulate" id="path3482-5" d="m 12.50002,8.9965178 c -1.93299,0 -3.5,1.5670102 -3.5,3.5000002 0,1.93299 1.56701,3.5 3.5,3.5 1.93299,0 3.5,-1.56701 3.5,-3.5 0,-1.93299 -1.56701,-3.5000002 -3.5,-3.5000002 z" class="error"/><path style="color:#bebebe;display:inline;overflow:visible;visibility:visible;fill:#fff;fill-opacity:1;fill-rule:nonzero;stroke:none;stroke-width:1.90939796;marker:none;enable-background:accumulate" id="path3482-5-0" d="m 10.00002,11.965268 5,0 0,1.03125 -5,0 z" class="error"/></svg>