<svg xmlns="http://www.w3.org/2000/svg" xmlns:osb="http://www.openswatchbook.org/uri/2009/osb" xmlns:svg="http://www.w3.org/2000/svg" id="svg7384" width="16.036" height="16" version="1.1"><metadata id="metadata90"/><title id="title9167">elementary Symbolic Icon Theme</title><defs id="defs7386"><linearGradient id="linearGradient4526" osb:paint="solid"><stop style="stop-color:#fff;stop-opacity:1" id="stop4528" offset="0"/></linearGradient></defs><path style="color:#fbc02d;clip-rule:nonzero;display:inline;overflow:visible;visibility:visible;opacity:1;isolation:auto;mix-blend-mode:normal;color-interpolation:sRGB;color-interpolation-filters:linearRGB;solid-color:#000;solid-opacity:1;fill:#3585dd;fill-opacity:1;fill-rule:nonzero;stroke:none;stroke-width:1;stroke-linecap:butt;stroke-linejoin:miter;stroke-miterlimit:4;stroke-dasharray:none;stroke-dashoffset:0;stroke-opacity:1;marker:none;color-rendering:auto;image-rendering:auto;shape-rendering:auto;text-rendering:auto;enable-background:accumulate" id="path3369" d="M 12.5,5 A 3.5,3.5 0 0 0 9.0390625,8 l -3.09375,0 A 2.5,2.5 0 0 0 3.5,6 2.5,2.5 0 0 0 1,8.5 2.5,2.5 0 0 0 3.5,11 2.5,2.5 0 0 0 5.9492188,9 L 9.0410156,9 A 3.5,3.5 0 0 0 12.5,12 3.5,3.5 0 0 0 16,8.5 3.5,3.5 0 0 0 12.5,5 Z m 0,2 A 1.5,1.5 0 0 1 14,8.5 1.5,1.5 0 0 1 12.5,10 1.5,1.5 0 0 1 11,8.5 1.5,1.5 0 0 1 12.5,7 Z"/></svg>