<svg xmlns="http://www.w3.org/2000/svg" xmlns:osb="http://www.openswatchbook.org/uri/2009/osb" xmlns:svg="http://www.w3.org/2000/svg" xmlns:xlink="http://www.w3.org/1999/xlink" id="svg7384" width="16.036" height="16" version="1.1"><metadata id="metadata90"/><title id="title9167">elementary Symbolic Icon Theme</title><defs id="defs7386"><linearGradient id="linearGradient4169"><stop id="stop4171" offset="0" style="stop-color:#403757;stop-opacity:1"/><stop id="stop4173" offset="1" style="stop-color:#403757;stop-opacity:0"/></linearGradient><linearGradient id="linearGradient4175" x1="2.302" x2="0" y1="5.751" y2="7" gradientTransform="translate(0,-2)" gradientUnits="userSpaceOnUse" xlink:href="#linearGradient4169"/><linearGradient id="linearGradient4526" osb:paint="solid"><stop id="stop4528" offset="0" style="stop-color:#fff;stop-opacity:1"/></linearGradient></defs><path id="rect4194-8-1" d="m 0,5 0,1 10,0 0,-1 z m 0,2 0,1 10,0 0,-1 z m 0,2 0,1 10,0 0,-1 z m 0,2 0,1 10,0 0,-1 z" style="color:#bebebe;clip-rule:nonzero;display:inline;overflow:visible;visibility:visible;opacity:.5;isolation:auto;mix-blend-mode:normal;color-interpolation:sRGB;color-interpolation-filters:linearRGB;solid-color:#000;solid-opacity:1;fill:url(#linearGradient4175);fill-opacity:1;fill-rule:nonzero;stroke:none;stroke-width:1;stroke-linecap:butt;stroke-linejoin:miter;stroke-miterlimit:4;stroke-dasharray:none;stroke-dashoffset:0;stroke-opacity:1;marker:none;color-rendering:auto;image-rendering:auto;shape-rendering:auto;text-rendering:auto;enable-background:accumulate"/><path style="color:#fbc02d;clip-rule:nonzero;display:inline;overflow:visible;visibility:visible;opacity:1;isolation:auto;mix-blend-mode:normal;color-interpolation:sRGB;color-interpolation-filters:linearRGB;solid-color:#000;solid-opacity:1;fill:#844cc8;fill-opacity:1;fill-rule:nonzero;stroke:none;stroke-width:1;stroke-linecap:butt;stroke-linejoin:miter;stroke-miterlimit:4;stroke-dasharray:none;stroke-dashoffset:0;stroke-opacity:1;marker:none;color-rendering:auto;image-rendering:auto;shape-rendering:auto;text-rendering:auto;enable-background:accumulate" id="rect4162-1-2-3" d="M 9.8972757,2.3502185 C 9.4420058,1.8949492 8.7220627,1.88186 8.2830522,2.3208699 L 4.3208683,6.2830549 C 3.8818592,6.7220639 3.8949481,7.4420074 4.3502207,7.8972767 L 10.102726,13.64978 c 0.455271,0.455272 1.175214,0.468361 1.614224,0.02935 l 3.962182,-3.9621871 c 0.439009,-0.4390102 0.42592,-1.1589534 -0.02935,-1.6142245 z"/></svg>