<svg xmlns="http://www.w3.org/2000/svg" xmlns:svg="http://www.w3.org/2000/svg" id="svg2" width="16.036" height="16" version="1.1"><metadata id="metadata12"/><title id="title4">elementary Symbolic Icon Theme</title><path id="path8069" d="m 5.500034,14.5 0,0 c -1.500034,0.03125 -2,-0.9375 -2,-2 l 0,-2.5 C 3.500034,9.15625 2.499966,8.5 1,8.5 2.2202282,8.480454 3.510011,8.0690658 3.500034,7 l 0,-2.5 c -0.03125,-1.09375 0.499966,-2 2,-2" style="fill:none;fill-rule:evenodd;stroke:#403757;stroke-width:1px;stroke-linecap:square;stroke-linejoin:miter;stroke-opacity:1"/><path style="fill:none;fill-rule:evenodd;stroke:#403757;stroke-width:1px;stroke-linecap:square;stroke-linejoin:miter;stroke-opacity:1" id="path8075" d="m 10.491992,14.5 0,0 c 1.500034,0.03125 2,-0.9375 2,-2 l 0,-2.5 c 0,-0.84375 1.000068,-1.5 2.500034,-1.5 C 13.771798,8.480454 12.482015,8.0690658 12.491992,7 l 0,-2.5 c 0.03125,-1.09375 -0.499966,-2 -2,-2"/></svg>