<svg xmlns="http://www.w3.org/2000/svg" xmlns:svg="http://www.w3.org/2000/svg" id="svg2" width="16.036" height="16" version="1.1"><metadata id="metadata12"/><title id="title4">elementary Symbolic Icon Theme</title><path id="rect17708-5-2" d="m 2.518,3 c -0.277,0 -0.5,0.223 -0.5,0.5 v 3 c 0,0.277 0.223,0.5 0.5,0.5 h 1.65625 v 3 h -1.5 c -0.277,0 -0.5,0.223 -0.5,0.5 v 3 c 0,0.277 0.223,0.5 0.5,0.5 h 4 c 0.277,0 0.5,-0.223 0.5,-0.5 v -3 c 0,-0.277 -0.223,-0.5 -0.5,-0.5 h -1.5 V 7 H 11.018 v 3 h -1.5 c -0.277,0 -0.5,0.223 -0.5,0.5 v 3 c 0,0.277 0.223,0.5 0.5,0.5 h 4 c 0.277,0 0.5,-0.223 0.5,-0.5 v -3 c 0,-0.277 -0.223,-0.5 -0.5,-0.5 h -1.5 V 7 h 1.5 c 0.277,0 0.5,-0.223 0.5,-0.5 v -3 c 0,-0.277 -0.223,-0.5 -0.5,-0.5 z" style="color:#000;display:inline;overflow:visible;visibility:visible;fill:#666;fill-opacity:1;fill-rule:nonzero;stroke:none;stroke-width:1;marker:none;enable-background:accumulate;font-variant-east_asian:normal;opacity:1;vector-effect:none;stroke-linecap:butt;stroke-linejoin:miter;stroke-miterlimit:4;stroke-dasharray:none;stroke-dashoffset:0;stroke-opacity:1"/></svg>