<svg xmlns="http://www.w3.org/2000/svg" xmlns:osb="http://www.openswatchbook.org/uri/2009/osb" xmlns:svg="http://www.w3.org/2000/svg" id="svg7384" width="16.036" height="16" version="1.1"><metadata id="metadata90"/><title id="title9167">elementary Symbolic Icon Theme</title><defs id="defs7386"><linearGradient id="linearGradient4526" osb:paint="solid"><stop style="stop-color:#fff;stop-opacity:1" id="stop4528" offset="0"/></linearGradient></defs><path id="rect3375" d="M 10.130787,1 A 4.8692121,4.8692121 0 0 0 5.2615759,5.869212 4.8692121,4.8692121 0 0 0 5.7846357,8.0636861 L 1.3576471,12.488298 c -0.47686282,0.476861 -0.47686282,1.246857 0,1.72372 l 0.4303356,0.430334 c 0.4768629,0.476864 1.2468572,0.476864 1.72372,0 L 7.941069,10.210609 A 4.8692121,4.8692121 0 0 0 10.130787,10.738424 4.8692121,4.8692121 0 0 0 15,5.869212 4.8692121,4.8692121 0 0 0 14.474562,3.6794931 l -3.05039,3.0503901 c -0.476862,0.4768629 -1.246856,0.4768629 -1.7237202,0 L 9.2701167,6.2995476 c -0.4768629,-0.4768628 -0.4768629,-1.2468571 0,-1.7237201 L 12.322884,1.5230599 A 4.8692121,4.8692121 0 0 0 10.130787,1 Z" style="color:#fbc02d;clip-rule:nonzero;display:inline;overflow:visible;visibility:visible;opacity:1;isolation:auto;mix-blend-mode:normal;color-interpolation:sRGB;color-interpolation-filters:linearRGB;solid-color:#000;solid-opacity:1;fill:gray;fill-opacity:1;fill-rule:nonzero;stroke:none;stroke-width:1;stroke-linecap:butt;stroke-linejoin:miter;stroke-miterlimit:4;stroke-dasharray:none;stroke-dashoffset:0;stroke-opacity:1;marker:none;color-rendering:auto;image-rendering:auto;shape-rendering:auto;text-rendering:auto;enable-background:accumulate"/></svg>