<svg xmlns="http://www.w3.org/2000/svg" xmlns:svg="http://www.w3.org/2000/svg" xmlns:xlink="http://www.w3.org/1999/xlink" id="svg2526" width="32" height="32" version="1.0"><metadata id="metadata58"/><defs id="defs2528"><linearGradient id="linearGradient4441"><stop id="stop4443" offset="0" style="stop-color:#fff;stop-opacity:1"/><stop id="stop4445" offset="0" style="stop-color:#fff;stop-opacity:.23529412"/><stop id="stop4447" offset="1" style="stop-color:#fff;stop-opacity:.15686275"/><stop id="stop4449" offset="1" style="stop-color:#fff;stop-opacity:.39215687"/></linearGradient><linearGradient id="linearGradient5060"><stop id="stop5062" offset="0" style="stop-color:#000;stop-opacity:1"/><stop id="stop5064" offset="1" style="stop-color:#000;stop-opacity:0"/></linearGradient><linearGradient id="linearGradient5048"><stop id="stop5050" offset="0" style="stop-color:#000;stop-opacity:0"/><stop id="stop5056" offset=".5" style="stop-color:#000;stop-opacity:1"/><stop id="stop5052" offset="1" style="stop-color:#000;stop-opacity:0"/></linearGradient><linearGradient id="linearGradient3188" x1="302.857" x2="302.857" y1="366.648" y2="609.505" gradientTransform="matrix(0.06045202,0,0,0.01647059,-0.754243,21.961096)" gradientUnits="userSpaceOnUse" xlink:href="#linearGradient5048"/><radialGradient id="radialGradient3190" cx="605.714" cy="486.648" r="117.143" fx="605.714" fy="486.648" gradientTransform="matrix(-0.02008098,0,0,0.01647059,18.60219,21.961131)" gradientUnits="userSpaceOnUse" xlink:href="#linearGradient5060"/><radialGradient id="radialGradient3192" cx="605.714" cy="486.648" r="117.143" fx="605.714" fy="486.648" gradientTransform="matrix(0.02008097,0,0,0.01647059,13.397992,21.961131)" gradientUnits="userSpaceOnUse" xlink:href="#linearGradient5060"/><linearGradient id="linearGradient3296" x1="24" x2="24" y1="3.087" y2="41.696" gradientTransform="matrix(0.7837838,0,0,0.6216216,2.189191,2.081085)" gradientUnits="userSpaceOnUse" xlink:href="#linearGradient4441"/><linearGradient id="linearGradient3299" x1="25.132" x2="25.132" y1=".985" y2="47.013" gradientTransform="matrix(0.88775301,0,0,0.54518426,-4.27036,3.0337592)" gradientUnits="userSpaceOnUse" xlink:href="#linearGradient4337"/><linearGradient id="linearGradient5736"><stop id="stop5738" offset="0" style="stop-color:#586e75;stop-opacity:1"/><stop id="stop5740" offset="1" style="stop-color:#073642;stop-opacity:1"/></linearGradient><linearGradient id="linearGradient4337"><stop id="stop4339" offset="0" style="stop-color:#fdf6e3;stop-opacity:1"/><stop id="stop4341" offset="1" style="stop-color:#eee8d5;stop-opacity:1"/></linearGradient><linearGradient id="linearGradient4496" x1="20.384" x2="25.581" y1="2.753" y2="51.199" gradientTransform="matrix(0.80384891,0.14170306,-0.08623413,0.48892969,0.012884,-1.6575098)" gradientUnits="userSpaceOnUse" xlink:href="#linearGradient5736"/><linearGradient id="linearGradient866" x1="25.132" x2="25.132" y1=".985" y2="47.013" gradientTransform="matrix(0.88775301,0,0,0.54518426,-4.27036,3.0337592)" gradientUnits="userSpaceOnUse" xlink:href="#linearGradient5736"/><linearGradient id="linearGradient868" x1="24" x2="24" y1="3.087" y2="41.696" gradientTransform="matrix(0.7837838,0,0,0.6216216,2.189191,2.081085)" gradientUnits="userSpaceOnUse" xlink:href="#linearGradient4441"/></defs><g style="opacity:.3" id="g899" transform="translate(0,-1)"><path style="display:inline;overflow:visible;visibility:visible;fill:url(#linearGradient3188);fill-opacity:1;fill-rule:nonzero;stroke:none;stroke-width:1;marker:none" id="rect2879" d="m 6.5,28 h 19 v 4 h -19 z"/><path id="path2881" d="m 6.5001792,28.000173 c 0,0 0,3.99978 0,3.99978 -1.0341207,0.0075 -2.5,-0.896148 -2.5,-2.000148 0,-1.103997 1.1540005,-1.99963 2.5,-1.999632 z" style="display:inline;overflow:visible;visibility:visible;fill:url(#radialGradient3190);fill-opacity:1;fill-rule:nonzero;stroke:none;stroke-width:1;marker:none"/><path id="path2883" d="m 25.5,28.000173 c 0,0 0,3.99978 0,3.99978 1.034121,0.0075 2.5,-0.896148 2.5,-2.000148 0,-1.103997 -1.154001,-1.99963 -2.5,-1.999632 z" style="display:inline;overflow:visible;visibility:visible;fill:url(#radialGradient3192);fill-opacity:1;fill-rule:nonzero;stroke:none;stroke-width:1;marker:none"/></g><g id="g864" transform="rotate(-5,17.951881,28.999998)"><path id="path860" d="M 5.5,2.5 26.499963,2.5016 26.5,29.5 h -21 z" style="display:inline;fill:url(#linearGradient866);fill-opacity:1;stroke:#001921;stroke-linejoin:round;stroke-opacity:.49803922"/><path id="path862" d="M 25.499996,28.499998 H 6.499998 v -25 h 18.999998 z" style="opacity:.3;fill:none;stroke:url(#linearGradient868);stroke-width:.99999994;stroke-linecap:round;stroke-linejoin:round;stroke-miterlimit:4;stroke-dasharray:none;stroke-dashoffset:0;stroke-opacity:1"/></g><g id="g858"><path style="display:inline;fill:url(#linearGradient3299);fill-opacity:1;stroke:#aa8e37;stroke-linejoin:round;stroke-opacity:.49803922" id="path4160" d="M 5.5,2.5 26.499963,2.5016 26.5,29.5 h -21 z"/><path style="fill:none;stroke:url(#linearGradient3296);stroke-width:.99999994;stroke-linecap:round;stroke-linejoin:round;stroke-miterlimit:4;stroke-dasharray:none;stroke-dashoffset:0;stroke-opacity:1" id="rect6741-1" d="M 25.499996,28.499998 H 6.499998 v -25 h 18.999998 z"/></g><path style="display:inline;opacity:.2;fill:#aa8e37;fill-opacity:1;stroke:none" id="path3406" d="m 10.861243,25 h 1.214349 v 1 h -1.214349 z m 1.455995,0 H 14 v 1 H 12.317238 Z M 8,25 h 2.619597 v 1 H 8 Z m 7.408515,-4 h 1.463354 v 1 h -1.463354 z m 5.33801,0 H 24 v 1 h -3.253475 z m -7.117345,0 h 1.571183 v 1 H 13.62918 Z m -3.461622,0 h 3.253469 v 1 H 10.167558 Z M 8,21 h 1.9594061 v 1 H 8 Z m 13.644893,2 H 22 v 1 h -0.355107 z m -1.702811,0 h 1.520188 v 1 h -1.520188 z m -2.576618,0 h 2.259559 v 1 h -2.259559 z m -1.926866,0 h 1.721831 v 1 h -1.721831 z m -1.411545,0 h 1.072077 v 1 h -1.072077 z m -1.254697,0 h 1.072075 v 1 h -1.072075 z m -0.694569,0 h 0.556751 v 1 h -0.556751 z m -1.433946,0 h 1.184102 v 1 H 10.643841 Z M 8,23 h 2.461212 v 1 H 8 Z M 9.2850351,13 H 13 v 1 H 9.2850351 Z M 8,13 h 1.0208471 v 1 H 8 Z m 7.681271,-2 H 17.1985 v 1 h -1.517229 z m 3.24246,0 H 21 v 1 h -2.076269 z m -1.509424,0 h 1.293608 v 1 h -1.293608 z m -3.57788,0 h 1.629029 v 1 h -1.629029 z m -3.589067,0 h 3.373251 v 1 H 10.24736 Z M 8,11 h 2.031545 v 1 H 8 Z M 16.871151,9 H 19 v 1 h -2.128849 z m -1.83386,0 h 1.622223 v 1 h -1.622223 z m -1.221698,0 h 1.010055 v 1 H 13.815593 Z M 12.5939,9 h 1.010055 v 1 H 12.5939 Z m -0.736183,0 h 0.524541 v 1 h -0.524541 z m -1.327244,0 h 1.1156 v 1 h -1.1156 z M 8,9 h 2.318828 v 1 H 8 Z M 21.245171,7 H 22 v 1 h -0.754829 z m -2.675029,0 h 2.465985 v 1 h -2.465985 z m -3.454788,0 h 3.24575 v 1 h -3.24575 z m -1.462058,0 h 1.253014 v 1 h -1.253014 z m -0.768939,0 h 0.559895 V 8 H 12.884357 Z M 11.40064,7 h 1.27468 V 8 H 11.40064 Z M 9.7436381,7 H 11.191604 V 8 H 9.7436381 Z M 8,7 H 9.5346001 V 8 H 8 Z m 7.88059,10 h 2.904735 v 1 H 15.88059 Z m -1.459009,0 h 1.233101 v 1 h -1.233101 z m -3.313834,0 h 3.087926 v 1 H 11.107747 Z M 8,17 h 2.88184 v 1 H 8 Z m 7.03866,2 h 1.629256 v 1 H 15.03866 Z m -1.335653,0 h 1.014437 v 1 h -1.014437 z m -1.187238,0 h 1.014435 v 1 h -1.014435 z m -0.657225,0 h 0.526817 v 1 h -0.526817 z m -1.35685,0 h 1.120439 v 1 H 10.501694 Z M 8,19 h 2.328884 v 1 H 8 Z M 18.540849,15 H 21 v 1 h -2.459151 z m -3.445214,0 h 3.236755 v 1 h -3.236755 z m -1.458006,0 h 1.249541 v 1 h -1.249541 z m -0.766808,0 h 0.558343 v 1 h -0.558343 z m -1.479606,0 h 1.271148 v 1 h -1.271148 z m -1.6524089,0 h 1.4439529 v 1 H 9.7388061 Z M 8,15 h 1.5303471 v 1 H 8 Z"/><path style="color:#000;font-style:normal;font-variant:normal;font-weight:600;font-stretch:normal;font-size:19px;line-height:125%;font-family:'Open Sans';-inkscape-font-specification:'Open Sans Semi-Bold';text-align:start;letter-spacing:0;word-spacing:0;writing-mode:lr-tb;text-anchor:start;clip-rule:nonzero;display:inline;overflow:visible;visibility:visible;opacity:1;isolation:auto;mix-blend-mode:normal;color-interpolation:sRGB;color-interpolation-filters:linearRGB;solid-color:#000;solid-opacity:1;fill:#fff;fill-opacity:1;fill-rule:nonzero;stroke:none;stroke-width:1;stroke-linecap:butt;stroke-linejoin:miter;stroke-miterlimit:4;stroke-dasharray:none;stroke-dashoffset:0;stroke-opacity:1;marker:none;color-rendering:auto;image-rendering:auto;shape-rendering:auto;text-rendering:auto;enable-background:accumulate" id="path915" d="m 13.999997,12.96875 c -0.89872,9e-6 -1.892324,0.160004 -2.34375,0.4375 -0.44729,0.273761 -0.65625,0.696249 -0.65625,1.28125 v 1.28125 c 0,0.348759 -0.16416,0.577502 -0.4375,0.75 -0.269203,0.168756 -1.00339,0.281254 -1.5625,0.28125 v 1 c 1.101651,2e-6 2,0.364993 2,1.0625 v 1.09375 c 0,0.641256 0.2067,1.121244 0.625,1.40625 0.422435,0.288751 1.418299,0.429997 2.375,0.4375 v -1.03125 c -0.476282,-0.0075 -1.476285,-0.0925 -1.6875,-0.25 -0.211223,-0.157501 -0.3125,-0.379997 -0.3125,-0.6875 v -1.1875 c 0,-0.306801 -0.114087,-1.208745 -1.0625,-1.34375 v -0.0625 c 0.948413,-0.146248 1.0625,-0.87352 1.0625,-1.3125 v -1.1875 c 0,-0.307498 0.101283,-0.502491 0.3125,-0.65625 0.215357,-0.157495 1.21536,-0.262493 1.6875,-0.28125 z m 4,0 V 14 c 0.47214,0.01876 1.472143,0.123755 1.6875,0.28125 0.211217,0.153759 0.3125,0.348752 0.3125,0.65625 v 1.1875 c 0,0.43898 0.114087,1.166252 1.0625,1.3125 V 17.5 c -0.948413,0.135005 -1.0625,1.036949 -1.0625,1.34375 v 1.1875 c 0,0.307503 -0.101277,0.529999 -0.3125,0.6875 -0.211215,0.157499 -1.211218,0.2425 -1.6875,0.25 V 22 c 0.956701,-0.0075 1.952565,-0.148749 2.375,-0.4375 0.4183,-0.285006 0.625,-0.764994 0.625,-1.40625 V 19.0625 c 0,-0.697507 0.898349,-1.062498 2,-1.0625 v -1 c -0.55911,4e-6 -1.293297,-0.112494 -1.5625,-0.28125 -0.27334,-0.172498 -0.4375,-0.401241 -0.4375,-0.75 V 14.6875 c 0,-0.585001 -0.20896,-1.007489 -0.65625,-1.28125 -0.451426,-0.277496 -1.44503,-0.437491 -2.34375,-0.4375 z"/><path id="path3826-5" d="m 13.999997,11.96875 c -0.89872,9e-6 -1.892324,0.160004 -2.34375,0.4375 -0.44729,0.273761 -0.65625,0.696249 -0.65625,1.28125 v 1.28125 c 0,0.348759 -0.16416,0.577502 -0.4375,0.75 -0.269203,0.168756 -1.00339,0.281254 -1.5625,0.28125 v 1 c 1.101651,2e-6 2,0.364993 2,1.0625 v 1.09375 c 0,0.641256 0.2067,1.121244 0.625,1.40625 0.422435,0.288751 1.418299,0.429997 2.375,0.4375 v -1.03125 c -0.476282,-0.0075 -1.476285,-0.0925 -1.6875,-0.25 -0.211223,-0.157501 -0.3125,-0.379997 -0.3125,-0.6875 v -1.1875 c 0,-0.306801 -0.114087,-1.208745 -1.0625,-1.34375 v -0.0625 c 0.948413,-0.146248 1.0625,-0.87352 1.0625,-1.3125 v -1.1875 c 0,-0.307498 0.101283,-0.502491 0.3125,-0.65625 0.215357,-0.157495 1.21536,-0.262493 1.6875,-0.28125 z m 4,0 V 13 c 0.47214,0.01876 1.472143,0.123755 1.6875,0.28125 0.211217,0.153759 0.3125,0.348752 0.3125,0.65625 v 1.1875 c 0,0.43898 0.114087,1.166252 1.0625,1.3125 V 16.5 c -0.948413,0.135005 -1.0625,1.036949 -1.0625,1.34375 v 1.1875 c 0,0.307503 -0.101277,0.529999 -0.3125,0.6875 -0.211215,0.157499 -1.211218,0.2425 -1.6875,0.25 V 21 c 0.956701,-0.0075 1.952565,-0.148749 2.375,-0.4375 0.4183,-0.285006 0.625,-0.764994 0.625,-1.40625 V 18.0625 c 0,-0.697507 0.898349,-1.062498 2,-1.0625 v -1 c -0.55911,4e-6 -1.293297,-0.112494 -1.5625,-0.28125 -0.27334,-0.172498 -0.4375,-0.401241 -0.4375,-0.75 V 13.6875 c 0,-0.585001 -0.20896,-1.007489 -0.65625,-1.28125 -0.451426,-0.277496 -1.44503,-0.437491 -2.34375,-0.4375 z" style="color:#000;font-style:normal;font-variant:normal;font-weight:600;font-stretch:normal;font-size:19px;line-height:125%;font-family:'Open Sans';-inkscape-font-specification:'Open Sans Semi-Bold';text-align:start;letter-spacing:0;word-spacing:0;writing-mode:lr-tb;text-anchor:start;clip-rule:nonzero;display:inline;overflow:visible;visibility:visible;opacity:1;isolation:auto;mix-blend-mode:normal;color-interpolation:sRGB;color-interpolation-filters:linearRGB;solid-color:#000;solid-opacity:1;fill:url(#linearGradient4496);fill-opacity:1;fill-rule:nonzero;stroke:none;stroke-width:1;stroke-linecap:butt;stroke-linejoin:miter;stroke-miterlimit:4;stroke-dasharray:none;stroke-dashoffset:0;stroke-opacity:1;marker:none;color-rendering:auto;image-rendering:auto;shape-rendering:auto;text-rendering:auto;enable-background:accumulate"/></svg>